<?xml version="1.0" standalone="no"?>
<!DOCTYPE svg PUBLIC "-//W3C//DTD SVG 20010904//EN"
 "http://www.w3.org/TR/2001/REC-SVG-20010904/DTD/svg10.dtd">
<svg version="1.0" xmlns="http://www.w3.org/2000/svg"
 width="2000.000000pt" height="1013.000000pt" viewBox="0 0 2000.000000 1013.000000"
 preserveAspectRatio="xMidYMid meet">
<metadata>
Created by potrace 1.13, written by Peter Selinger 2001-2015
</metadata>
<g transform="translate(0.000000,1013.000000) scale(0.100000,-0.100000)"
fill="#000000" stroke="none">
<path d="M9900 7939 c-181 -8 -396 -30 -488 -50 -71 -15 -139 -63 -284 -199
-248 -234 -362 -318 -457 -339 -25 -5 -109 -19 -186 -30 -131 -19 -299 -38
-1380 -156 -433 -48 -513 -59 -528 -74 -35 -35 -72 -308 -65 -480 8 -193 22
-203 402 -281 l269 -56 14 -55 c99 -387 519 -536 794 -281 32 29 70 72 86 95
25 37 33 42 68 43 22 1 50 5 62 9 18 6 25 2 34 -19 21 -45 60 -51 344 -51 143
0 288 4 322 8 l62 8 6 -28 c35 -170 75 -253 164 -343 115 -117 257 -167 403
-142 221 38 384 216 426 465 15 90 15 104 0 192 -18 109 -63 212 -126 291 -47
60 -155 134 -229 158 -29 10 -53 20 -53 23 0 3 33 3 73 -1 145 -13 289 -116
335 -239 13 -32 27 -116 37 -217 9 -91 19 -167 21 -169 2 -2 205 24 451 58
786 110 1291 171 1405 171 42 0 44 -1 67 -52 31 -67 120 -157 191 -191 184
-90 402 -35 521 132 95 133 105 327 23 467 -54 93 -178 182 -277 200 l-39 7
29 18 c38 26 112 25 166 -2 82 -41 114 -86 171 -236 15 -40 36 -83 45 -94 l17
-22 145 58 c195 78 293 128 348 180 25 23 55 44 66 46 13 3 33 29 57 74 43 80
55 129 39 149 -8 9 -8 33 -2 77 4 35 7 69 6 74 -2 6 -6 22 -9 37 -9 40 -39 55
-146 73 -52 9 -207 43 -345 76 -223 54 -264 67 -375 120 -147 71 -311 160
-510 277 -212 125 -224 128 -665 176 -216 24 -410 35 -785 46 -381 11 -464 11
-720 -1z m300 -124 c267 -15 459 -30 466 -38 2 -2 -36 -84 -84 -183 -48 -98
-107 -221 -131 -271 -31 -66 -48 -93 -61 -93 -19 0 -1406 135 -1498 145 l-53
7 148 121 c81 67 206 171 278 230 l130 108 265 -5 c146 -3 389 -13 540 -21z
m1357 -89 c32 -18 157 -86 278 -151 121 -65 232 -127 248 -137 46 -33 31 -88
-24 -88 -14 0 -147 -20 -295 -44 -148 -25 -354 -52 -459 -60 -258 -21 -765
-39 -791 -29 -20 8 -15 21 104 276 l126 267 377 0 378 0 58 -34z m991 -1060
c74 -38 114 -121 120 -243 6 -123 -15 -189 -78 -255 -42 -43 -51 -48 -91 -48
-57 0 -102 28 -139 86 -90 143 -51 397 72 457 41 20 81 21 116 3z m-2840 -299
c147 -97 175 -399 51 -550 -129 -156 -330 -60 -370 177 -28 164 43 341 156
393 44 19 117 11 163 -20z"/>
<path d="M3507 5549 c-299 -27 -555 -148 -778 -369 -223 -221 -329 -450 -359
-775 -23 -255 26 -517 135 -723 171 -322 470 -543 850 -629 114 -26 461 -26
590 0 257 51 452 145 619 298 l56 51 0 419 0 419 -205 0 -205 0 0 -328 c0
-369 6 -339 -80 -382 -137 -69 -292 -102 -490 -102 -172 0 -267 19 -391 81
-225 113 -368 291 -430 538 -28 112 -30 339 -5 448 62 263 217 456 459 571
197 93 483 110 707 42 78 -24 199 -87 257 -135 24 -19 48 -31 53 -28 16 10
210 287 210 299 0 25 -155 131 -277 188 -146 69 -274 100 -476 117 -70 6 -131
10 -135 10 -4 -1 -51 -6 -105 -10z"/>
<path d="M11475 5549 c-312 -28 -573 -143 -790 -351 -181 -172 -299 -380 -349
-613 -49 -233 -49 -364 0 -605 92 -446 456 -807 921 -916 146 -34 395 -44 529
-20 175 30 352 100 486 191 60 40 219 180 237 208 11 17 -2 34 -115 148 -71
71 -132 129 -137 129 -6 0 -28 -17 -51 -38 -61 -56 -163 -126 -241 -166 -202
-103 -483 -113 -699 -27 -103 41 -171 86 -266 177 -128 122 -198 241 -241 406
-28 110 -31 328 -5 439 57 238 227 445 459 555 214 101 509 111 734 24 80 -31
214 -116 291 -185 27 -25 54 -45 59 -45 6 0 50 44 100 98 125 135 153 168 153
180 0 17 -151 152 -229 205 -239 161 -536 233 -846 206z"/>
<path d="M5160 4280 l0 -1220 205 0 205 0 0 1220 0 1220 -205 0 -205 0 0
-1220z"/>
<path d="M6993 5492 c-6 -4 -39 -70 -73 -147 -33 -77 -67 -153 -75 -170 -7
-16 -48 -109 -90 -205 -42 -96 -101 -229 -130 -295 -29 -66 -95 -214 -145
-330 -51 -115 -116 -264 -145 -330 -29 -66 -88 -199 -130 -295 -42 -96 -83
-188 -91 -205 -66 -146 -194 -441 -194 -447 0 -4 97 -8 215 -8 l216 0 33 73
c19 39 44 95 55 122 12 28 52 118 89 200 l67 150 611 3 611 2 120 -272 120
-273 217 -3 c128 -1 216 1 216 7 0 11 -31 84 -184 431 -224 507 -304 688 -626
1420 -241 547 -247 561 -264 572 -6 4 -101 8 -211 8 -110 0 -205 -4 -212 -8z
m361 -830 c77 -174 171 -387 209 -472 38 -85 71 -165 74 -177 l5 -23 -436 0
c-240 0 -436 3 -436 8 0 4 48 115 106 247 106 240 270 612 305 693 10 23 22
42 26 42 4 0 71 -143 147 -318z"/>
<path d="M13767 5486 c-8 -8 -34 -59 -57 -113 -24 -54 -97 -219 -163 -368 -65
-148 -157 -358 -204 -465 -122 -277 -172 -392 -421 -958 -122 -276 -222 -507
-222 -512 0 -7 74 -9 216 -8 l216 3 38 85 c21 47 73 164 115 260 42 96 82 181
87 188 8 9 143 12 614 12 l604 0 30 -62 c17 -35 72 -157 123 -273 l92 -210
218 -3 c119 -1 217 1 217 6 0 5 -31 78 -69 163 -37 85 -108 244 -156 354 -222
507 -297 676 -460 1045 -65 146 -155 351 -200 455 -157 360 -176 399 -188 407
-7 4 -103 8 -214 8 -162 0 -204 -3 -216 -14z m354 -801 c70 -160 137 -310 148
-335 80 -180 151 -345 151 -352 0 -4 -196 -8 -435 -8 -313 0 -435 3 -435 11 0
6 43 109 95 228 53 119 148 336 213 483 64 147 121 266 126 265 5 -2 67 -133
137 -292z"/>
<path d="M15620 4278 l0 -1223 202 2 203 2 5 408 5 408 260 2 c143 2 265 0
271 -5 6 -4 129 -173 274 -377 144 -203 274 -385 289 -403 l26 -33 253 0 c139
-1 255 1 257 3 2 2 -129 188 -292 413 -162 226 -304 422 -315 437 l-19 28 28
11 c127 50 218 106 288 175 143 142 205 315 205 579 0 448 -201 686 -641 759
-170 28 -356 36 -831 36 l-468 0 0 -1222z m1176 827 c123 -22 179 -43 231 -89
77 -68 113 -165 113 -310 0 -141 -37 -254 -109 -329 -45 -48 -87 -70 -187 -98
-73 -20 -107 -22 -446 -26 l-368 -5 0 436 0 436 339 0 c261 0 359 -4 427 -15z"/>
<path d="M8710 4095 l0 -185 580 0 580 0 0 185 0 185 -580 0 -580 0 0 -185z"/>
</g>
</svg>
